PathFileType	4	(X/Y/Z)	../Python\walking\Walking19\task.trc
DataRate	CameraRate	NumFrames	NumMarkers	Units	OrigDataRate	OrigDataStartFrame	OrigNumFrames
200.000000	200.000000	4	30	mm	200.000000	214	571
Frame#	Time	RBAK			CLAV			STRN			RASI			LASI			PE01			RTH1			RTH2			RTH3			RTB2			RTB3			RD5M			RTOE			LTH3			LTB2			LTB3			LHEE			LTOE			LD5M			RHEE			LTH1			LTH2			C7			RTB1			LPSI			PE03			PE02			RPSI			T10			LTB1			
		X1	Y1	Z1	X2	Y2	Z2	X3	Y3	Z3	X4	Y4	Z4	X5	Y5	Z5	X6	Y6	Z6	X7	Y7	Z7	X8	Y8	Z8	X9	Y9	Z9	X10	Y10	Z10	X11	Y11	Z11	X12	Y12	Z12	X13	Y13	Z13	X14	Y14	Z14	X15	Y15	Z15	X16	Y16	Z16	X17	Y17	Z17	X18	Y18	Z18	X19	Y19	Z19	X20	Y20	Z20	X21	Y21	Z21	X22	Y22	Z22	X23	Y23	Z23	X24	Y24	Z24	X25	Y25	Z25	X26	Y26	Z26	X27	Y27	Z27	X28	Y28	Z28	X29	Y29	Z29	X30	Y30	Z30	

215	1.07	-303.0285644531251	1244.2958984375	250.6585083007814	-127.0323638916016	1253.628662109375	155.6671295166016	-65.14843750000003	1070.264282226563	160.3029022216797	-107.4408950805665	869.6436157226567	277.2333984375001	-84.62007904052737	867.1538085937505	51.34286117553714	-291.2195739746095	945.739135742188	164.0911254882813	-78.94395446777347	588.1379394531252	307.7841796875001	-31.23336982727052	525.9331665039065	293.3426513671876	-28.20092201232912	587.0949707031252	302.6047363281251	-18.89412117004395	266.4003295898439	286.4651489257814	15.21343612670899	233.1895904541017	271.586151123047	95.33280181884768	39.72276687622072	274.885955810547	127.8231201171876	59.41546630859378	230.4565582275392	-150.6312713623047	578.6370849609377	35.44739913940431	-326.8745727539064	213.5720062255861	53.17316055297854	-283.8166809082032	234.1694183349611	60.85568618774417	-397.1336669921877	42.89250946044923	110.7098770141602	-204.5872344970704	28.40199089050294	126.077262878418	-244.3913574218751	15.46731185913087	72.4982604980469	-47.27336502075197	33.56389617919923	197.0469665527345	-187.6219940185547	606.9031372070315	18.26809120178223	-226.9494781494142	558.4553833007815	28.57969093322755	-249.8384857177736	1345.863159179688	152.2188873291016	21.79038238525391	310.9985656738282	280.7161560058595	-293.1224670410157	912.2343139648442	119.0326766967774	-306.3528137207032	887.5198364257817	133.6748657226563	-309.933807373047	885.217407226563	184.2456970214844	-299.0533752441407	907.5463256835942	206.3756713867189	-274.9427185058595	1047.823486328125	152.154769897461	-305.9646911621095	288.4962463378907	40.54111099243165	
216	1.075	-296.8258361816407	1242.841064453125	250.7396087646486	-120.6832427978516	1252.223999023438	155.9216918945313	-58.83904647827151	1068.828247070313	160.359848022461	-100.8039321899415	868.2583007812505	277.2122192382814	-78.63860321044925	865.9248657226567	51.19439315795901	-284.7539367675782	944.3551635742192	164.8698730468751	-73.21511840820315	586.296813964844	307.6883850097657	-25.61656379699708	524.025573730469	293.0498657226564	-22.43831253051759	585.134948730469	302.5721435546876	-6.494974613189701	264.7970275878907	286.5679626464845	28.76203536987306	232.7717590332032	271.980682373047	115.8897705078126	41.46440887451173	275.5101013183595	147.7139739990235	62.17883300781253	231.043426513672	-146.863754272461	577.8321533203127	34.77291107177736	-325.6719055175782	213.9425048828126	53.24766921997073	-282.4159545898439	234.1826934814454	60.78796386718753	-397.0757141113284	43.60859680175783	110.9290771484376	-204.5826568603517	28.39172744750978	126.0427246093751	-244.4854431152345	15.42058467864991	72.53173828125003	-26.63143157958986	30.99544715881349	197.8865356445314	-183.949447631836	606.3189697265627	18.03598022460938	-223.4429626464845	558.073181152344	28.56579780578615	-243.5040283203126	1344.576538085938	152.5191497802735	32.61227416992189	310.7163085937501	280.8464355468751	-287.0731506347657	910.9802246093755	119.7581253051758	-300.2835998535157	886.2658081054692	134.4220428466797	-303.6526794433595	883.8952636718755	185.0034942626954	-292.7348022460939	906.0286254882817	206.9488067626954	-268.7752075195314	1046.487060546875	152.5101928710938	-304.1882629394532	288.6746520996095	40.58954238891603	
217	1.08	-290.5863647460939	1241.357543945313	250.8413696289064	-114.303695678711	1250.783813476563	156.1749267578126	-52.49841690063479	1067.355224609375	160.4173431396485	-94.12912750244143	866.842895507813	277.1824645996095	-72.65596771240237	864.6858520507817	51.0327072143555	-278.2556762695314	942.9409790039067	165.6843566894532	-67.646354675293	584.3252563476565	307.6211242675782	-20.1885166168213	521.960144042969	292.8028564453126	-16.83930397033692	583.0015258789065	302.6737365722657	5.701185226440431	263.3374023437501	286.6688537597657	42.05480575561525	232.5023651123048	272.3781127929689	136.0008544921876	43.47678375244142	276.148651123047	167.1480712890626	65.15642547607425	231.6606903076173	-142.9998931884766	577.0293579101565	34.13327789306642	-324.4216613769532	214.3494110107423	53.34458923339847	-280.9558715820314	234.2099914550782	60.7303161621094	-397.0019531250002	44.38395309448244	111.1683731079102	-204.5848999023439	28.38620758056642	126.0125122070313	-244.5957794189454	15.37658119201661	72.57721710205081	-6.324715137481693	28.88047218322755	198.7188568115236	-180.1865234375001	605.728942871094	17.81771469116212	-219.8311462402345	557.6760864257815	28.5684280395508	-237.1467132568361	1343.2587890625	152.8268737792969	43.22779846191408	310.4928588867189	280.9736633300782	-280.999969482422	909.694702148438	120.5189666748047	-294.1872863769532	884.983764648438	135.2071990966797	-297.334930419922	882.541870117188	185.7976379394532	-286.3796386718751	904.480590820313	207.5559844970704	-262.5816040039064	1045.121215820313	152.8853302001954	-302.3413085937501	288.8833312988282	40.66137695312501	
218	1.085	-284.3092041015626	1239.850708007813	250.9642028808595	-107.8930206298829	1249.31396484375	156.4280548095704	-46.12534713745119	1065.852416992188	160.4763488769532	-87.41582489013675	865.4058227539067	277.1440734863282	-66.66899871826175	863.4385375976567	50.85807800292972	-271.7239074707032	941.503295898438	166.529769897461	-62.22222137451175	582.2446289062502	307.5766601562501	-14.93316650390626	519.760925292969	292.5942382812501	-11.3916015625	580.717468261719	302.9081115722657	17.67730140686036	262.0230407714845	286.7685852050782	55.07097244262698	232.3712768554689	272.7765502929689	155.6149139404297	45.72848510742189	276.8011474609376	186.0814666748047	68.3135681152344	232.306610107422	-139.042709350586	576.227966308594	33.53240203857423	-323.1248779296876	214.7952423095704	53.45867538452151	-279.4369506835939	234.2548980712892	60.67681121826175	-396.909606933594	45.22158813476564	111.4202423095704	-204.5933074951173	28.3845558166504	125.9858551025391	-244.7199249267579	15.33777236938477	72.63218688964847	13.57374000549317	27.19598197937013	199.5438079833986	-176.328598022461	605.135437011719	17.61375427246094	-216.1144561767579	557.268737792969	28.58466720581056	-230.7657928466798	1341.915283203125	153.142562866211	53.63448333740237	310.3253479003907	281.0970458984376	-274.8989868164064	908.3825073242192	121.3113479614258	-288.0608215332032	883.6785278320317	136.0272064208985	-290.977508544922	881.163696289063	186.6254425048829	-279.9855041503907	902.910034179688	208.1945953369142	-256.3591918945314	1043.731079101563	153.2771606445313	-300.4276123046876	289.1258850097657	40.75164031982423	
